<svg width="27" height="31" viewBox="0 0 27 31" fill="none" xmlns="http://www.w3.org/2000/svg">
<path d="M13.5 0V16.9306" stroke="black" stroke-width="1.5"/>
<path d="M21.4995 25.5V0" stroke="black"/>
<path d="M16 15.5346C16 16.9345 14.8807 18.0693 13.5 18.0693C12.1193 18.0693 11 16.9345 11 15.5346C11 14.1347 12.1193 12.9999 13.5 12.9999C14.8807 12.9999 16 14.1347 16 15.5346Z" fill="#040000"/>
<path d="M24 26.5347C24 27.9346 22.8807 29.0694 21.5 29.0694C20.1193 29.0694 19 27.9346 19 26.5347C19 25.1348 20.1193 24 21.5 24C22.8807 24 24 25.1348 24 26.5347Z" fill="#040000"/>
</svg>
