<svg width="26" height="44" viewBox="0 0 26 44" fill="none" xmlns="http://www.w3.org/2000/svg">
<mask id="mask0_410_2" style="mask-type:luminance" maskUnits="userSpaceOnUse" x="0" y="1" width="26" height="43">
<path d="M26 1H0V44H26V1Z" fill="white"/>
</mask>
<g mask="url(#mask0_410_2)">
<path d="M21.5 15.7552V45M13.5 15.748V45" stroke="black"/>
<path d="M13.5 16L5 0" stroke="black" stroke-width="1.5"/>
<path d="M21.5 15.9999L13 0" stroke="black"/>
<path d="M25.4134 25.7908C25.4134 26.1209 25.2368 26.4649 24.8523 26.8073C24.468 27.1495 23.8977 27.4691 23.1716 27.7426C21.7213 28.2889 19.7008 28.6319 17.4567 28.6319C15.2127 28.6319 13.1922 28.2889 11.7418 27.7426C11.0157 27.4691 10.4455 27.1495 10.0612 26.8073C9.67667 26.4649 9.5 26.1209 9.5 25.7908C9.5 25.4607 9.67667 25.1167 10.0612 24.7743C10.4455 24.4321 11.0157 24.1125 11.7418 23.839C13.1922 23.2927 15.2127 22.9497 17.4567 22.9497C19.7008 22.9497 21.7213 23.2927 23.1716 23.839C23.8977 24.1125 24.468 24.4321 24.8523 24.7743C25.2368 25.1167 25.4134 25.4607 25.4134 25.7908Z" stroke="black"/>
<path d="M9.13672 7.80627H17.2462" stroke="black"/>
<path d="M10.7935 10.9594H19.0003" stroke="black"/>
<path d="M4.0944 11L9 8.84185L4 7" stroke="#0B0101"/>
<path d="M9.69641 25.7505H2.46924" stroke="black"/>
<path d="M2.23096 26.25V9" stroke="black"/>
<path d="M1.72461 8.8385H8.39165" stroke="black"/>
</g>
<path d="M13.5 15.7941L13.5 44" stroke="black" stroke-width="1.5"/>
</svg>
