<svg width="26" height="44" viewBox="0 0 26 44" fill="none" xmlns="http://www.w3.org/2000/svg">
<mask id="mask0_410_38" style="mask-type:luminance" maskUnits="userSpaceOnUse" x="0" y="1" width="26" height="43">
<path d="M26 1H0V44H26V1Z" fill="white"/>
</mask>
<g mask="url(#mask0_410_38)">
<path d="M21.5 14.7552V45M13.5 14.748V45" stroke="black"/>
<path d="M13.4999 15.0001L5 -1" stroke="black" stroke-width="1.5"/>
<path d="M21.5 14.9999L13 -1" stroke="black"/>
<path d="M25.4134 24.7908C25.4134 25.1209 25.2368 25.4649 24.8523 25.8073C24.468 26.1495 23.8977 26.4691 23.1716 26.7426C21.7213 27.2889 19.7008 27.6319 17.4567 27.6319C15.2127 27.6319 13.1922 27.2889 11.7418 26.7426C11.0157 26.4691 10.4455 26.1495 10.0612 25.8073C9.67667 25.4649 9.5 25.1209 9.5 24.7908C9.5 24.4607 9.67667 24.1167 10.0612 23.7743C10.4455 23.4321 11.0157 23.1125 11.7418 22.839C13.1922 22.2927 15.2127 21.9497 17.4567 21.9497C19.7008 21.9497 21.7213 22.2927 23.1716 22.839C23.8977 23.1125 24.468 23.4321 24.8523 23.7743C25.2368 24.1167 25.4134 24.4607 25.4134 24.7908Z" stroke="black"/>
<path d="M9.13672 6.80627H17.2462" stroke="black"/>
<path d="M10.7935 9.95935H19.0003" stroke="black"/>
<path d="M2.7002 10L6.7002 7.84185L2.5 6" stroke="#0B0101"/>
<path d="M9.6963 24.7506H0.734375" stroke="black"/>
<path d="M1.23097 25L1.23096 8" stroke="black"/>
<path d="M0.742188 8.00012H6" stroke="black"/>
<path d="M6 6.06994L7.97143 5L10 8.93008L8.02858 10L6 6.06994Z" stroke="black" stroke-width="1.5"/>
</g>
<path d="M13.5 14.75L13.5 44" stroke="black" stroke-width="1.5"/>
</svg>
