<svg width="26" height="44" viewBox="0 0 26 44" fill="none" xmlns="http://www.w3.org/2000/svg">
<g clip-path="url(#clip0_314_111)">
<path d="M21.5 14.7552L21.5 44M13.5 14.748L13.5 44" stroke="black" stroke-width="0.5"/>
<path d="M13.4999 15.0001L5 -1" stroke="black" stroke-width="0.5"/>
<path d="M21.5 14.9999L13 -1" stroke="black" stroke-width="0.5"/>
<path d="M25.7498 24.7908C25.7498 25.1209 25.5732 25.4649 25.1887 25.8073C24.8044 26.1495 24.2341 26.4691 23.508 26.7426C22.0577 27.2889 20.0372 27.6319 17.7931 27.6319C15.5491 27.6319 13.5286 27.2889 12.0782 26.7426C11.3521 26.4691 10.7819 26.1495 10.3976 25.8073C10.0131 25.4649 9.83643 25.1209 9.83643 24.7908C9.83643 24.4607 10.0131 24.1167 10.3976 23.7743C10.7819 23.4321 11.3521 23.1125 12.0782 22.839C13.5286 22.2927 15.5491 21.9497 17.7931 21.9497C20.0372 21.9497 22.0577 22.2927 23.508 22.839C24.2341 23.1125 24.8044 23.4321 25.1887 23.7743C25.5732 24.1167 25.7498 24.4607 25.7498 24.7908Z" stroke="black" stroke-width="0.5"/>
<path d="M9.13672 6.80627L17.2462 6.80627" stroke="black" stroke-width="0.5"/>
<path d="M10.7934 9.95935L19.0002 9.95935" stroke="black" stroke-width="0.5"/>
<path d="M5.44856 8.93487L8.48963 7.78832L5.39004 6.80981" stroke="#0B0101" stroke-width="0.5"/>
<path d="M9.69629 24.7505H2.46912" stroke="black" stroke-width="0.5"/>
<path d="M2.23097 25L2.23096 8" stroke="black" stroke-width="0.5"/>
<path d="M2 7.8385H8.39173" stroke="black" stroke-width="0.5"/>
</g>
<defs>
<clipPath id="clip0_314_111">
<rect width="26" height="44" fill="white"/>
</clipPath>
</defs>
</svg>
