<svg width="24" height="33" viewBox="0 0 24 33" fill="none" xmlns="http://www.w3.org/2000/svg">
<g clip-path="url(#clip0_15_12)">
<path d="M19.5 14.7552L19.5 34.5M11.5 14.748L11.5 34.5" stroke="black"/>
<path d="M11.5 15L3 -0.500001" stroke="black"/>
<path d="M19.5 15L11 -0.999878" stroke="black"/>
<path d="M23.5 24.7908C23.5 25.0241 23.3762 25.3056 23.0225 25.6206C22.6693 25.9352 22.1297 26.2414 21.42 26.5086C20.0044 27.0418 18.0152 27.3819 15.7933 27.3819C13.5713 27.3819 11.5821 27.0418 10.1665 26.5086C9.45686 26.2414 8.91726 25.9352 8.56399 25.6206C8.21028 25.3056 8.08655 25.0241 8.08655 24.7908C8.08655 24.5575 8.21028 24.276 8.56399 23.961C8.91726 23.6464 9.45686 23.3403 10.1665 23.073C11.5821 22.5398 13.5713 22.1997 15.7933 22.1997C18.0152 22.1997 20.0044 22.5398 21.42 23.073C22.1297 23.3403 22.6693 23.6464 23.0225 23.961C23.3762 24.276 23.5 24.5575 23.5 24.7908Z" stroke="black"/>
<path d="M7.31299 6.80615L15.2461 6.80615" stroke="black"/>
<path d="M8.79326 9.95923L17 9.95923" stroke="black"/>
<path d="M3.84309 5.99992L6.97656 7.5979" stroke="#0B0101"/>
<path d="M3.97656 9.59802L7.03776 7.65548" stroke="#0B0101"/>
<path d="M8 24.6685H1.02002" stroke="black"/>
<path d="M0.522654 25.1719L0.522643 8.37147" stroke="black"/>
<path d="M0 7.83862H7.61024" stroke="black"/>
</g>
<defs>
<clipPath id="clip0_15_12">
<rect width="24" height="33" fill="white"/>
</clipPath>
</defs>
</svg>
