<svg width="27" height="33" viewBox="0 0 27 33" fill="none" xmlns="http://www.w3.org/2000/svg">
<g clip-path="url(#clip0_307_165)">
<path d="M20.5 14.7552L20.5 34.5M12.5 14.748L12.5 34.5" stroke="black" stroke-width="0.5"/>
<path d="M12.5 15L4 -0.500001" stroke="black" stroke-width="0.5"/>
<path d="M20.5 15L12 -0.999878" stroke="black" stroke-width="0.5"/>
<path d="M24.7498 24.7908C24.7498 25.1209 24.5732 25.4649 24.1887 25.8073C23.8044 26.1495 23.2341 26.4691 22.508 26.7426C21.0577 27.2889 19.0372 27.6319 16.7931 27.6319C14.5491 27.6319 12.5286 27.2889 11.0782 26.7426C10.3521 26.4691 9.78188 26.1495 9.39761 25.8073C9.01311 25.4649 8.83643 25.1209 8.83643 24.7908C8.83643 24.4607 9.01311 24.1167 9.39761 23.7743C9.78188 23.4321 10.3521 23.1125 11.0782 22.839C12.5286 22.2927 14.5491 21.9497 16.7931 21.9497C19.0372 21.9497 21.0577 22.2927 22.508 22.839C23.2341 23.1125 23.8044 23.4321 24.1887 23.7743C24.5732 24.1167 24.7498 24.4607 24.7498 24.7908Z" stroke="black" stroke-width="0.5"/>
<path d="M8.13672 6.80615L16.2462 6.80615" stroke="black" stroke-width="0.5"/>
<path d="M9.79344 9.95923L18.0002 9.95923" stroke="black" stroke-width="0.5"/>
<path d="M4.44856 8.93499L7.48963 7.78844L4.39004 6.80993" stroke="#0B0101" stroke-width="0.5"/>
<path d="M8.69629 24.7505H1.46912" stroke="black" stroke-width="0.5"/>
<path d="M1.23097 25L1.23096 8" stroke="black" stroke-width="0.5"/>
<path d="M1 7.83862H7.39173" stroke="black" stroke-width="0.5"/>
</g>
<defs>
<clipPath id="clip0_307_165">
<rect width="27" height="33" fill="white"/>
</clipPath>
</defs>
</svg>
