<svg width="26" height="44" viewBox="0 0 26 44" fill="none" xmlns="http://www.w3.org/2000/svg">
<g clip-path="url(#clip0_314_111)">
<path d="M21.5 15.7552L21.5 45M13.5 15.748L13.5 45" stroke="black" stroke-width="0.5"/>
<path d="M13.4999 16.0001L5 -1.71449e-07" stroke="black" stroke-width="0.5"/>
<path d="M21.5 15.9999L13 -5.34737e-07" stroke="black" stroke-width="0.5"/>
<path d="M25.7498 25.7908C25.7498 26.1209 25.5732 26.4649 25.1887 26.8073C24.8044 27.1495 24.2341 27.4691 23.508 27.7426C22.0577 28.2889 20.0372 28.6319 17.7931 28.6319C15.5491 28.6319 13.5286 28.2889 12.0782 27.7426C11.3521 27.4691 10.7819 27.1495 10.3976 26.8073C10.0131 26.4649 9.83643 26.1209 9.83643 25.7908C9.83643 25.4607 10.0131 25.1167 10.3976 24.7743C10.7819 24.4321 11.3521 24.1125 12.0782 23.839C13.5286 23.2927 15.5491 22.9497 17.7931 22.9497C20.0372 22.9497 22.0577 23.2927 23.508 23.839C24.2341 24.1125 24.8044 24.4321 25.1887 24.7743C25.5732 25.1167 25.7498 25.4607 25.7498 25.7908Z" stroke="black" stroke-width="0.5"/>
<path d="M9.13672 7.80627L17.2462 7.80627" stroke="black" stroke-width="0.5"/>
<path d="M10.7934 10.9594L19.0002 10.9594" stroke="black" stroke-width="0.5"/>
<path d="M5.44856 9.93487L8.48963 8.78832L5.39004 7.80981" stroke="#0B0101" stroke-width="0.5"/>
<path d="M9.69629 25.7505H2.46912" stroke="black" stroke-width="0.5"/>
<path d="M2.23097 26L2.23096 9" stroke="black" stroke-width="0.5"/>
<path d="M2 8.8385H8.39173" stroke="black" stroke-width="0.5"/>
</g>
<defs>
<clipPath id="clip0_314_111">
<rect width="26" height="43" fill="white" transform="translate(0 1)"/>
</clipPath>
</defs>
</svg>
