<svg width="42" height="62" viewBox="0 0 42 62" fill="none" xmlns="http://www.w3.org/2000/svg">
<g clip-path="url(#clip0_7_282)">
<path d="M34.5 26.7509L34.5 61.9999M19.5 26.9754L19.5 61.9999" stroke="black"/>
<path d="M19.6617 27.1829L4.32519 -0.3988" stroke="black"/>
<path d="M34.5 26.9754L19 -0.721497" stroke="black"/>
<path d="M41.5 44.6007C41.5 45.1681 41.1903 45.7709 40.4924 46.3802C39.7956 46.9886 38.7583 47.5593 37.4334 48.0486C34.7875 49.0257 31.0988 49.6401 27 49.6401C22.9012 49.6401 19.2126 49.0257 16.5666 48.0486C15.2417 47.5593 14.2045 46.9886 13.5077 46.3802C12.8097 45.7709 12.5 45.1681 12.5 44.6007C12.5 44.0333 12.8097 43.4305 13.5077 42.8212C14.2045 42.2127 15.2417 41.6421 16.5666 41.1528C19.2126 40.1757 22.9012 39.5613 27 39.5613C31.0988 39.5613 34.7875 40.1757 37.4334 41.1528C38.7583 41.6421 39.7956 42.2127 40.4924 42.8212C41.1903 43.4305 41.5 44.0333 41.5 44.6007Z" stroke="black"/>
<path d="M11.5 12.3716L26 12.3716" stroke="black"/>
<line x1="15" y1="18.4181" x2="30" y2="18.4181" stroke="black"/>
<line y1="-0.5" x2="5.3905" y2="-0.5" transform="matrix(0.927558 0.37368 -0.369111 0.929385 8.00003 13.8824)" stroke="#0B0101"/>
<path d="M8.50003 17.4074L13.1857 15.4291" stroke="#0B0101"/>
<line x1="12" y1="44.5973" y2="44.5973" stroke="black"/>
<line x1="0.5" y1="45.1044" x2="0.499999" y2="15.8968" stroke="black"/>
<line y1="15.3968" x2="13" y2="15.3968" stroke="black"/>
</g>
<defs>
<clipPath id="clip0_7_282">
<rect width="42" height="62" fill="white"/>
</clipPath>
</defs>
</svg>
