<svg width="42" height="80" viewBox="0 0 42 80" fill="none" xmlns="http://www.w3.org/2000/svg">
<g clip-path="url(#clip0_7_304)">
<path d="M34.5 26.7771L34.5 61.7755M19.5 27.2441L19.5 80" stroke="black"/>
<path d="M19.4401 27.533L4.12014 -0.567055" stroke="black"/>
<path d="M34.441 27.0327L19.1365 -0.577322" stroke="black"/>
<path d="M41.5 44.5C41.5 45.0605 41.1918 45.6578 40.4937 46.263C39.7969 46.8671 38.7596 47.4337 37.4345 47.9196C34.7882 48.8899 31.0991 49.5 27 49.5C22.9009 49.5 19.2118 48.8899 16.5655 47.9196C15.2404 47.4337 14.2031 46.8671 13.5063 46.263C12.8082 45.6578 12.5 45.0605 12.5 44.5C12.5 43.9394 12.8082 43.3421 13.5063 42.7369C14.2031 42.1329 15.2404 41.5662 16.5655 41.0803C19.2118 40.11 22.9009 39.5 27 39.5C31.0991 39.5 34.7882 40.11 37.4345 41.0803C38.7596 41.5662 39.7969 42.1329 40.4937 42.7369C41.1918 43.3421 41.5 43.9394 41.5 44.5Z" stroke="black"/>
<path d="M34.5 61.5L19.5 75.5" stroke="black"/>
<path d="M11.7335 13L27 13" stroke="black"/>
<path d="M14.5 18.5L30 18.5" stroke="black"/>
<path d="M4.5 13.5L8.5 15.5" stroke="#0B0101"/>
<path d="M4.5 17.5L8.99999 15.5" stroke="#0B0101"/>
<line x1="12" y1="44.5" y2="44.5" stroke="black"/>
<line x1="0.5" y1="45" x2="0.499999" y2="16" stroke="black"/>
<path d="M0.5 15.5H8.5" stroke="black"/>
<path d="M7.03325 12.4412L10.1876 10.6793L13.1964 16.0656L10.042 17.8276L7.03325 12.4412Z" stroke="black"/>
</g>
<defs>
<clipPath id="clip0_7_304">
<rect width="42" height="80" fill="white"/>
</clipPath>
</defs>
</svg>
