<svg width="50" height="80" viewBox="0 0 50 80" fill="none" xmlns="http://www.w3.org/2000/svg">
<g clip-path="url(#clip0_7_333)">
<path d="M34.5 26.777L34.5 61.7754M19.5 27.2638L19.5 79.9999M49.5 8.99997L49.5 61.7754" stroke="black"/>
<path d="M19.5 27.5L4 -1" stroke="black"/>
<path d="M34.5 27L18.561 -1.53407" stroke="black"/>
<path d="M41.5 44.5C41.5 45.0605 41.1918 45.6578 40.4937 46.263C39.7969 46.8671 38.7596 47.4337 37.4345 47.9196C34.7882 48.8899 31.0991 49.5 27 49.5C22.9009 49.5 19.2118 48.8899 16.5655 47.9196C15.2404 47.4337 14.2031 46.8671 13.5063 46.263C12.8082 45.6578 12.5 45.0605 12.5 44.5C12.5 43.9394 12.8082 43.3421 13.5063 42.7369C14.2031 42.1329 15.2404 41.5662 16.5655 41.0803C19.2118 40.11 22.9009 39.5 27 39.5C31.0991 39.5 34.7882 40.11 37.4345 41.0803C38.7596 41.5662 39.7969 42.1329 40.4937 42.7369C41.1918 43.3421 41.5 43.9394 41.5 44.5Z" stroke="black"/>
<path d="M34.5 61.5L20 75.5" stroke="black"/>
<path d="M11.5 12.5L26 12.5" stroke="black"/>
<line x1="15" y1="18.5" x2="30" y2="18.5" stroke="black"/>
<line x1="12" y1="44.5" y2="44.5" stroke="black"/>
<line x1="0.5" y1="45" x2="0.499999" y2="16" stroke="black"/>
<path d="M20 75L49.5 61.5" stroke="black"/>
<path d="M4 13.5011L8 15.5011" stroke="#0B0101"/>
<path d="M4 17.5011L8.49999 15.5011" stroke="#0B0101"/>
<path d="M0 15.5011H8" stroke="black"/>
<path d="M7.01739 12.1719L10.0938 10.4534L13.1026 15.8398L10.0262 17.5583L7.01739 12.1719Z" stroke="black"/>
</g>
<defs>
<clipPath id="clip0_7_333">
<rect width="50" height="80" fill="white"/>
</clipPath>
</defs>
</svg>
