<svg width="124" height="26" viewBox="0 0 124 26" fill="none" xmlns="http://www.w3.org/2000/svg">
<g clip-path="url(#clip0_376_5)">
<circle cx="12.5" cy="13.5" r="11" stroke="white" stroke-width="3"/>
<path d="M29.016 21.084C27.945 21.084 27.119 20.384 27.119 19.306C27.119 18.235 27.945 17.535 29.016 17.535C29.786 17.535 30.262 17.885 30.451 18.172L29.639 18.935C29.534 18.774 29.338 18.648 29.072 18.648C28.715 18.648 28.407 18.872 28.407 19.306C28.407 19.74 28.715 19.971 29.072 19.971C29.338 19.971 29.534 19.831 29.639 19.677L30.451 20.447C30.262 20.727 29.786 21.084 29.016 21.084ZM32.1237 21H30.8637V17.619H32.1237V17.99C32.3337 17.745 32.7747 17.521 33.1597 17.521V18.725C33.0967 18.704 32.9917 18.69 32.8727 18.69C32.6067 18.69 32.2637 18.76 32.1237 18.928V21ZM35.2432 21.084C34.1862 21.084 33.3602 20.419 33.3602 19.306C33.3602 18.326 34.1092 17.535 35.2012 17.535C36.1952 17.535 36.9582 18.249 36.9582 19.439V19.698H34.6622C34.7322 19.915 34.9772 20.125 35.3902 20.125C35.5792 20.125 35.9992 20.034 36.1672 19.887L36.6852 20.664C36.3492 20.951 35.7472 21.084 35.2432 21.084ZM35.7612 18.9C35.7262 18.753 35.6072 18.494 35.2012 18.494C34.8162 18.494 34.6902 18.746 34.6482 18.9H35.7612ZM40.605 21H39.345V20.678C39.156 20.916 38.743 21.084 38.323 21.084C37.819 21.084 37.161 20.741 37.161 19.971C37.161 19.131 37.819 18.893 38.323 18.893C38.764 18.893 39.163 19.033 39.345 19.264V18.914C39.345 18.676 39.128 18.494 38.715 18.494C38.4 18.494 38.043 18.62 37.777 18.823L37.35 18.046C37.805 17.682 38.435 17.535 38.946 17.535C39.786 17.535 40.605 17.829 40.605 18.956V21ZM38.848 20.265C39.044 20.265 39.261 20.202 39.345 20.083V19.894C39.261 19.775 39.044 19.712 38.848 19.712C38.638 19.712 38.407 19.782 38.407 19.992C38.407 20.202 38.638 20.265 38.848 20.265ZM42.7231 21.084C41.9741 21.084 41.5611 20.727 41.5611 20.02V18.711H41.0011V17.619H41.5611V16.695H42.8211V17.619H43.5071V18.711H42.8211V19.656C42.8211 19.831 42.9331 19.971 43.1011 19.971C43.2131 19.971 43.3251 19.936 43.3531 19.908L43.5771 20.86C43.4441 20.979 43.1501 21.084 42.7231 21.084ZM45.627 21.084C44.57 21.084 43.744 20.419 43.744 19.306C43.744 18.326 44.493 17.535 45.585 17.535C46.579 17.535 47.342 18.249 47.342 19.439V19.698H45.046C45.116 19.915 45.361 20.125 45.774 20.125C45.963 20.125 46.383 20.034 46.551 19.887L47.069 20.664C46.733 20.951 46.131 21.084 45.627 21.084ZM46.145 18.9C46.11 18.753 45.991 18.494 45.585 18.494C45.2 18.494 45.074 18.746 45.032 18.9H46.145ZM50.932 21.084C50.309 21.084 49.637 20.867 49.273 20.566L49.777 19.719C50.043 19.929 50.617 20.146 50.995 20.146C51.254 20.146 51.331 20.083 51.331 19.999C51.331 19.677 49.413 20.09 49.413 18.69C49.413 18.081 49.945 17.535 50.925 17.535C51.492 17.535 51.996 17.71 52.388 17.969L51.926 18.788C51.716 18.613 51.324 18.438 50.932 18.438C50.75 18.438 50.617 18.508 50.617 18.585C50.617 18.865 52.535 18.515 52.535 19.922C52.535 20.594 51.933 21.084 50.932 21.084ZM54.6576 21.084C53.5866 21.084 52.7606 20.384 52.7606 19.306C52.7606 18.235 53.5866 17.535 54.6576 17.535C55.4276 17.535 55.9036 17.885 56.0926 18.172L55.2806 18.935C55.1756 18.774 54.9796 18.648 54.7136 18.648C54.3566 18.648 54.0486 18.872 54.0486 19.306C54.0486 19.74 54.3566 19.971 54.7136 19.971C54.9796 19.971 55.1756 19.831 55.2806 19.677L56.0926 20.447C55.9036 20.727 55.4276 21.084 54.6576 21.084ZM60.0613 21H58.8013V19.117C58.8013 18.767 58.6123 18.648 58.3113 18.648C58.0243 18.648 57.8773 18.795 57.7723 18.914V21H56.5123V16.331H57.7723V18.004C57.9683 17.78 58.3393 17.535 58.9343 17.535C59.7183 17.535 60.0613 17.997 60.0613 18.585V21ZM62.4161 21.084C61.3591 21.084 60.5331 20.419 60.5331 19.306C60.5331 18.326 61.2821 17.535 62.3741 17.535C63.3681 17.535 64.1311 18.249 64.1311 19.439V19.698H61.8351C61.9051 19.915 62.1501 20.125 62.5631 20.125C62.7521 20.125 63.1721 20.034 63.3401 19.887L63.8581 20.664C63.5221 20.951 62.9201 21.084 62.4161 21.084ZM62.9341 18.9C62.8991 18.753 62.7801 18.494 62.3741 18.494C61.9891 18.494 61.8631 18.746 61.8211 18.9H62.9341ZM70.1438 21H68.8838V19.026C68.8838 18.823 68.7788 18.648 68.4988 18.648C68.2188 18.648 68.0648 18.816 67.9808 18.914V21H66.7208V19.026C66.7208 18.823 66.6228 18.648 66.3358 18.648C66.0628 18.648 65.9088 18.816 65.8248 18.914V21H64.5648V17.619H65.8248V18.004C65.9718 17.815 66.3988 17.535 66.9448 17.535C67.4208 17.535 67.7638 17.71 67.9178 18.13C68.1138 17.836 68.5548 17.535 69.1008 17.535C69.7238 17.535 70.1438 17.85 70.1438 18.55V21ZM72.4991 21.084C71.4421 21.084 70.6161 20.419 70.6161 19.306C70.6161 18.326 71.3651 17.535 72.4571 17.535C73.4511 17.535 74.2141 18.249 74.2141 19.439V19.698H71.9181C71.9881 19.915 72.2331 20.125 72.6461 20.125C72.8351 20.125 73.2551 20.034 73.4231 19.887L73.9411 20.664C73.6051 20.951 73.0031 21.084 72.4991 21.084ZM73.0171 18.9C72.9821 18.753 72.8631 18.494 72.4571 18.494C72.0721 18.494 71.9461 18.746 71.9041 18.9H73.0171ZM78.119 19.971C78.28 19.971 78.525 19.88 78.637 19.74V18.879C78.518 18.732 78.28 18.648 78.119 18.648C77.783 18.648 77.489 18.886 77.489 19.306C77.489 19.733 77.783 19.971 78.119 19.971ZM77.685 21.084C76.845 21.084 76.201 20.468 76.201 19.306C76.201 18.151 76.845 17.535 77.685 17.535C78.035 17.535 78.364 17.654 78.637 17.976V17.619H79.897V22.288H78.637V20.643C78.357 20.965 78.035 21.084 77.685 21.084ZM84.1371 21H82.8771V20.622C82.6811 20.839 82.3101 21.084 81.7151 21.084C80.9311 21.084 80.5951 20.615 80.5951 20.034V17.619H81.8551V19.495C81.8551 19.838 82.0371 19.971 82.3451 19.971C82.6251 19.971 82.7721 19.824 82.8771 19.705V17.619H84.1371V21ZM85.4702 17.374C85.0782 17.374 84.7632 17.059 84.7632 16.667C84.7632 16.275 85.0782 15.96 85.4702 15.96C85.8622 15.96 86.1772 16.275 86.1772 16.667C86.1772 17.059 85.8622 17.374 85.4702 17.374ZM86.1002 21H84.8402V17.619H86.1002V21ZM88.4681 21.084C87.3971 21.084 86.5711 20.384 86.5711 19.306C86.5711 18.235 87.3971 17.535 88.4681 17.535C89.2381 17.535 89.7141 17.885 89.9031 18.172L89.0911 18.935C88.9861 18.774 88.7901 18.648 88.5241 18.648C88.1671 18.648 87.8591 18.872 87.8591 19.306C87.8591 19.74 88.1671 19.971 88.5241 19.971C88.7901 19.971 88.9861 19.831 89.0911 19.677L89.9031 20.447C89.7141 20.727 89.2381 21.084 88.4681 21.084ZM93.9488 21H92.4018L91.8208 19.908L91.5758 20.237V21H90.3158V16.331H91.5758V18.823L92.3528 17.619H93.8718L92.7098 19.159L93.9488 21ZM95.4723 21H94.2123V16.331H95.4723V21ZM96.1392 22.316L96.3142 21.196C96.3912 21.238 96.4962 21.259 96.5802 21.259C96.8252 21.259 96.9792 21.217 97.0212 21.126L97.0492 21.056L95.7192 17.619H97.0492L97.6932 19.551L98.3442 17.619H99.6742L98.2042 21.42C97.9032 22.204 97.3432 22.351 96.6292 22.372C96.5382 22.372 96.2582 22.351 96.1392 22.316Z" fill="white"/>
<path d="M29.756 14.144C28.052 14.144 26.888 13.64 26.036 12.872L27.296 11.072C27.896 11.648 28.796 12.104 29.876 12.104C30.332 12.104 30.764 11.984 30.764 11.672C30.764 10.904 26.3 11.684 26.3 8.528C26.3 7.172 27.428 5.876 29.624 5.876C30.932 5.876 32.108 6.248 33.02 6.992L31.724 8.708C31.028 8.18 30.128 7.916 29.372 7.916C28.892 7.916 28.76 8.072 28.76 8.276C28.76 9.032 33.212 8.384 33.212 11.36C33.212 13.124 31.904 14.144 29.756 14.144ZM37.9794 14.144C35.4714 14.144 33.5754 12.464 33.5754 10.004C33.5754 7.532 35.4714 5.864 37.9794 5.864C40.0794 5.864 41.1354 7.088 41.6154 8.192L39.5274 9.164C39.3234 8.54 38.6994 8 37.9794 8C36.8154 8 36.0354 8.888 36.0354 10.004C36.0354 11.12 36.8154 12.008 37.9794 12.008C38.6994 12.008 39.3234 11.468 39.5274 10.844L41.6154 11.804C41.1474 12.872 40.0794 14.144 37.9794 14.144ZM50.0906 14H47.6666V10.94H44.7986V14H42.3746V5.996H44.7986V8.828H47.6666V5.996H50.0906V14ZM57.4583 14H51.3863V5.996H57.4583V8.108H53.8103V8.9H57.3743V11.012H53.8103V11.888H57.4583V14ZM68.0387 14H65.6147V9.188L63.8267 14H62.7467L60.9587 9.188V14H58.5347V5.996H61.8827L63.2867 9.836L64.6907 5.996H68.0387V14ZM75.4114 14H69.3394V5.996H75.4114V8.108H71.7634V8.9H75.3274V11.012H71.7634V11.888H75.4114V14ZM89.0504 14H86.6264V9.188L84.8384 14H83.7584L81.9704 9.188V14H79.5464V5.996H82.8944L84.2984 9.836L85.7024 5.996H89.0504V14ZM98.4391 14H95.6911L95.4031 13.064H92.5231L92.2351 14H89.4871L92.4391 5.996H95.4871L98.4391 14ZM94.7551 10.952L93.9631 8.372L93.1711 10.952H94.7551ZM106.491 14H103.539L101.739 11.18L101.295 11.78V14H98.8707V5.996H101.295V8.996L103.395 5.996H106.359L103.335 9.716L106.491 14ZM112.993 14H106.921V5.996H112.993V8.108H109.345V8.9H112.909V11.012H109.345V11.888H112.993V14ZM121.234 14H118.474L117.37 11.48H116.494V14H114.07V5.996H118.342C120.214 5.996 121.222 7.244 121.222 8.744C121.222 10.124 120.418 10.856 119.782 11.168L121.234 14ZM117.97 9.368C118.378 9.368 118.762 9.176 118.762 8.732C118.762 8.3 118.378 8.108 117.97 8.108H116.494V9.368H117.97Z" fill="white"/>
</g>
<defs>
<clipPath id="clip0_376_5">
<rect width="124" height="26" fill="white"/>
</clipPath>
</defs>
</svg>
