<svg width="17" height="16" viewBox="0 0 17 16" fill="none" xmlns="http://www.w3.org/2000/svg">
<path d="M0.253716 15.25C0.385881 10.8093 4.02728 7.25 8.5 7.25C12.9727 7.25 16.6141 10.8093 16.7463 15.25H16.742H16.714H16.6862H16.6585H16.6309H16.6035H16.5762H16.549H16.522H16.4951H16.4683H16.4417H16.4152H16.3888H16.3626H16.3365H16.3105H16.2846H16.2589H16.2333H16.2078H16.1825H16.1572H16.1321H16.1072H16.0823H16.0576H16.033H16.0085H15.9841H15.9599H15.9358H15.9118H15.8879H15.8642H15.8405H15.817H15.7936H15.7703H15.7471H15.7241H15.7011H15.6783H15.6556H15.633H15.6105H15.5881H15.5659H15.5437H15.5217H15.4998H15.4779H15.4562H15.4346H15.4131H15.3918H15.3705H15.3493H15.3283H15.3073H15.2864H15.2657H15.2451H15.2245H15.2041H15.1837H15.1635H15.1434H15.1233H15.1034H15.0836H15.0638H15.0442H15.0247H15.0052H14.9859H14.9667H14.9475H14.9285H14.9095H14.8906H14.8719H14.8532H14.8346H14.8161H14.7977H14.7794H14.7612H14.743H14.725H14.707H14.6892H14.6714H14.6537H14.6361H14.6186H14.6012H14.5838H14.5666H14.5494H14.5323H14.5153H14.4984H14.4815H14.4647H14.4481H14.4315H14.4149H14.3985H14.3821H14.3658H14.3496H14.3335H14.3174H14.3014H14.2855H14.2697H14.2539H14.2383H14.2227H14.2071H14.1916H14.1763H14.1609H14.1457H14.1305H14.1154H14.1003H14.0854H14.0705H14.0556H14.0408H14.0261H14.0115H13.9969H13.9824H13.9679H13.9536H13.9392H13.925H13.9108H13.8966H13.8826H13.8685H13.8546H13.8407H13.8269H13.8131H13.7993H13.7857H13.7721H13.7585H13.745H13.7316H13.7182H13.7049H13.6916H13.6783H13.6652H13.652H13.639H13.6259H13.613H13.6H13.5872H13.5743H13.5615H13.5488H13.5361H13.5235H13.5109H13.4983H13.4858H13.4734H13.461H13.4486H13.4363H13.424H13.4117H13.3995H13.3873H13.3752H13.3631H13.3511H13.3391H13.3271H13.3151H13.3032H13.2914H13.2795H13.2677H13.256H13.2443H13.2326H13.2209H13.2093H13.1977H13.1861H13.1746H13.1631H13.1516H13.1401H13.1287H13.1173H13.106H13.0946H13.0833H13.072H13.0608H13.0495H13.0383H13.0271H13.016H13.0048H12.9937H12.9826H12.9715H12.9605H12.9494H12.9384H12.9274H12.9164H12.9054H12.8945H12.8836H12.8726H12.8617H12.8509H12.84H12.8291H12.8183H12.8074H12.7966H12.7858H12.775H12.7642H12.7535H12.7427H12.7319H12.7212H12.7104H12.6997H12.689H12.6782H12.6675H12.6568H12.6461H12.6354H12.6247H12.614H12.6033H12.5926H12.5819H12.5712H12.5606H12.5499H12.5392H12.5285H12.5178H12.5071H12.4964H12.4857H12.475H12.4643H12.4535H12.4428H12.4321H12.4214H12.4106H12.3999H12.3891H12.3783H12.3676H12.3568H12.346H12.3352H12.3243H12.3135H12.3027H12.2918H12.2809H12.27H12.2591H12.2482H12.2373H12.2263H12.2154H12.2044H12.1934H12.1824H12.1713H12.1603H12.1492H12.1381H12.127H12.1158H12.1046H12.0934H12.0822H12.071H12.0597H12.0484H12.0371H12.0258H12.0144H12.003H11.9916H11.9802H11.9687H11.9572H11.9456H11.9341H11.9225H11.9108H11.8992H11.8875H11.8758H11.864H11.8522H11.8404H11.8285H11.8166H11.8046H11.7927H11.7807H11.7686H11.7565H11.7444H11.7322H11.72H11.7077H11.6955H11.6831H11.6707H11.6583H11.6459H11.6334H11.6208H11.6082H11.5956H11.5829H11.5701H11.5574H11.5445H11.5316H11.5187H11.5057H11.4927H11.4796H11.4665H11.4533H11.4401H11.4268H11.4135H11.4001H11.3866H11.3731H11.3596H11.346H11.3323H11.3186H11.3048H11.2909H11.277H11.2631H11.2491H11.235H11.2208H11.2066H11.1924H11.178H11.1637H11.1492H11.1347H11.1201H11.1055H11.0907H11.076H11.0611H11.0462H11.0312H11.0162H11.0011H10.9859H10.9706H10.9553H10.9399H10.9244H10.9089H10.8933H10.8776H10.8618H10.846H10.8301H10.8141H10.798H10.7819H10.7657H10.7494H10.733H10.7166H10.7H10.6834H10.6667H10.65H10.6331H10.6162H10.5992H10.5821H10.5649H10.5476H10.5303H10.5128H10.4953H10.4777H10.46H10.4422H10.4244H10.4064H10.3884H10.3702H10.352H10.3337H10.3153H10.2968H10.2782H10.2595H10.2407H10.2219H10.2029H10.1839H10.1647H10.1454H10.1261H10.1067H10.0871H10.0675H10.0477H10.0279H10.008H9.98793H9.96779H9.94756H9.92722H9.90677H9.88623H9.86558H9.84482H9.82397H9.803H9.78193H9.76076H9.73948H9.71809H9.69659H9.67499H9.65328H9.63145H9.60952H9.58748H9.56532H9.54306H9.52068H9.49819H9.47558H9.45287H9.43004H9.40709H9.38403H9.36085H9.33755H9.31414H9.29062H9.26697H9.2432H9.21932H9.19531H9.17119H9.14695H9.12258H9.09809H9.07348H9.04875H9.02389H8.99891H8.9738H8.94857H8.92322H8.89774H8.87213H8.84639H8.82053H8.79454H8.76841H8.74216H8.71578H8.68927H8.66263H8.63586H8.60895H8.58191H8.55474H8.52744H8.5H8.47258H8.44535H8.41829H8.39141H8.36471H8.33818H8.31183H8.28566H8.25966H8.23383H8.20817H8.18269H8.15738H8.13224H8.10726H8.08246H8.05782H8.03335H8.00905H7.98491H7.96093H7.93712H7.91347H7.88999H7.86666H7.8435H7.82049H7.79764H7.77496H7.75242H7.73005H7.70783H7.68576H7.66385H7.64209H7.62049H7.59903H7.57773H7.55658H7.53557H7.51471H7.49401H7.47344H7.45303H7.43275H7.41263H7.39264H7.3728H7.3531H7.33354H7.31412H7.29484H7.2757H7.2567H7.23783H7.2191H7.20051H7.18205H7.16372H7.14553H7.12746H7.10953H7.09173H7.07406H7.05652H7.03911H7.02182H7.00466H6.98763H6.97072H6.95393H6.93727H6.92073H6.90431H6.88801H6.87183H6.85577H6.83983H6.82401H6.8083H6.79271H6.77724H6.76188H6.74663H6.73149H6.71647H6.70156H6.68676H6.67206H6.65748H6.643H6.62864H6.61437H6.60022H6.58616H6.57221H6.55837H6.54462H6.53098H6.51744H6.504H6.49065H6.47741H6.46426H6.45121H6.43825H6.42539H6.41262H6.39995H6.38737H6.37488H6.36248H6.35017H6.33795H6.32582H6.31378H6.30182H6.28995H6.27816H6.26646H6.25484H6.24331H6.23186H6.22048H6.20919H6.19798H6.18685H6.17579H6.16481H6.15391H6.14308H6.13233H6.12165H6.11105H6.10052H6.09005H6.07966H6.06934H6.05909H6.04891H6.03879H6.02874H6.01876H6.00884H5.99898H5.98919H5.97946H5.96979H5.96019H5.95064H5.94115H5.93173H5.92236H5.91304H5.90378H5.89458H5.88543H5.87634H5.8673H5.85831H5.84937H5.84048H5.83164H5.82285H5.81411H5.80542H5.79677H5.78817H5.77961H5.77109H5.76262H5.7542H5.74581H5.73746H5.72916H5.72089H5.71266H5.70447H5.69631H5.6882H5.68011H5.67206H5.66405H5.65606H5.64811H5.64019H5.6323H5.62444H5.61661H5.6088H5.60102H5.59327H5.58555H5.57784H5.57017H5.56251H5.55488H5.54727H5.53968H5.5321H5.52455H5.51702H5.5095H5.502H5.49451H5.48704H5.47959H5.47215H5.46471H5.4573H5.44989H5.44249H5.4351H5.42772H5.42035H5.41298H5.40562H5.39827H5.39091H5.38357H5.37622H5.36888H5.36154H5.3542H5.34686H5.33951H5.33217H5.32482H5.31747H5.31011H5.30275H5.29538H5.28801H5.28062H5.27323H5.26583H5.25842H5.251H5.24356H5.23612H5.22866H5.22118H5.21369H5.20619H5.19867H5.19113H5.18357H5.17599H5.1684H5.16078H5.15314H5.14548H5.13779H5.13008H5.12235H5.11459H5.10681H5.09899H5.09115H5.08329H5.07539H5.06746H5.0595H5.0515H5.04348H5.03542H5.02733H5.0192H5.01103H5.00283H4.99459H4.98631H4.978H4.96964H4.96124H4.9528H4.94432H4.93579H4.92722H4.91861H4.90995H4.90124H4.89248H4.88368H4.87483H4.86593H4.85697H4.84797H4.83891H4.8298H4.82064H4.81142H4.80215H4.79282H4.78343H4.77399H4.76448H4.75492H4.7453H4.73561H4.72587H4.71606H4.70618H4.69625H4.68625H4.67618H4.66604H4.65584H4.64557H4.63523H4.62482H4.61434H4.60378H4.59316H4.58246H4.57169H4.56084H4.54992H4.53892H4.52784H4.51668H4.50545H4.49413H4.48274H4.47126H4.45971H4.44807H4.43634H4.42453H4.41264H4.40066H4.38859H4.37643H4.36419H4.35185H4.33943H4.32691H4.31431H4.30161H4.28881H4.27593H4.26294H4.24987H4.23669H4.22342H4.21005H4.19658H4.18301H4.16934H4.15556H4.14169H4.12771H4.11363H4.09944H4.08515H4.07075H4.05624H4.04163H4.02691H4.01207H3.99713H3.98208H3.96691H3.95163H3.93624H3.92073H3.90511H3.88937H3.87351H3.85754H3.84145H3.82524H3.80891H3.79245H3.77588H3.75918H3.74236H3.72542H3.70835H3.69115H3.67383H3.65638H3.6388H3.6211H3.60326H3.58529H3.56719H3.54896H3.5306H3.5121H3.49347H3.4747H3.4558H3.43675H3.41758H3.39826H3.3788H3.3592H3.33946H3.31958H3.29956H3.27939H3.25908H3.23862H3.21802H3.19726H3.17637H3.15532H3.13412H3.11278H3.09128H3.06963H3.04783H3.02588H3.00377H2.98151H2.95909H2.93651H2.91378H2.89089H2.86784H2.84463H2.82126H2.79773H2.77404H2.75018H2.72616H2.70197H2.67762H2.65311H2.62842H2.60357H2.57855H2.55336H2.528H2.50247H2.47677H2.45089H2.42484H2.39862H2.37222H2.34564H2.31889H2.29196H2.26486H2.23757H2.2101H2.18246H2.15463H2.12662H2.09842H2.07004H2.04148H2.01273H1.98379H1.95467H1.92536H1.89586H1.86617H1.83629H1.80622H1.77596H1.7455H1.71485H1.68401H1.65297H1.62173H1.5903H1.55867H1.52684H1.49481H1.46258H1.43015H1.39752H1.36469H1.33165H1.29841H1.26496H1.23131H1.19745H1.16338H1.12911H1.09462H1.05993H1.02502H0.989908H0.95458H0.919038H0.883282H0.847312H0.811126H0.774724H0.738105H0.701267H0.664211H0.626935H0.589439H0.551722H0.513783H0.47562H0.437235H0.398624H0.359789H0.320727H0.281439H0.253716Z" stroke="black" stroke-width="0.5"/>
<path d="M0 7.09261L17 7.09261" stroke="black" stroke-width="0.5"/>
<path d="M8.5 0L8.5 15" stroke="black" stroke-width="0.5"/>
</svg>
