<svg width="32" height="32" viewBox="0 0 32 32" fill="none" xmlns="http://www.w3.org/2000/svg">
<circle cx="16" cy="16" r="14.5" stroke="white" stroke-width="3"/>
<path d="M9.008 21.192C6.736 21.192 5.184 20.52 4.048 19.496L5.728 17.096C6.528 17.864 7.728 18.472 9.168 18.472C9.776 18.472 10.352 18.312 10.352 17.896C10.352 16.872 4.4 17.912 4.4 13.704C4.4 11.896 5.904 10.168 8.832 10.168C10.576 10.168 12.144 10.664 13.36 11.656L11.632 13.944C10.704 13.24 9.504 12.888 8.496 12.888C7.856 12.888 7.68 13.096 7.68 13.368C7.68 14.376 13.616 13.512 13.616 17.48C13.616 19.832 11.872 21.192 9.008 21.192ZM26.3885 21H23.1565V14.584L20.7725 21H19.3325L16.9485 14.584V21H13.7165V10.328H18.1805L20.0525 15.448L21.9245 10.328H26.3885V21Z" fill="white"/>
</svg>
